# Made in Blockbench 4.10.4
mtllib fur.mtl

o /head
v 0.11250000000000004 0.48124999999999996 -0.3937500125
v -0.11250000000000004 0.48124999999999996 -0.3937500125
v -0.11250000000000004 0.70625 -0.3937500125
v 0.11250000000000004 0.70625 -0.3937500125
v 0.11250000000000004 0.48124999999999996 -0.16875
v 0.11250000000000004 0.70625 -0.16875
v -0.11250000000000004 0.48124999999999996 -0.16875
v -0.11250000000000004 0.70625 -0.16875
vt 0.09375 0.625
vt 0.1875 0.625
vt 0.1875 0.8125
vt 0.09375 0.8125
vt 0 0.625
vt 0.09375 0.625
vt 0.09375 0.8125
vt 0 0.8125
vt 0.28125 0.625
vt 0.375 0.625
vt 0.375 0.8125
vt 0.28125 0.8125
vt 0.1875 0.625
vt 0.28125 0.625
vt 0.28125 0.8125
vt 0.1875 0.8125
vt 0.1875 1
vt 0.09375 1
vt 0.09375 0.8125
vt 0.1875 0.8125
vt 0.1875 0.8125
vt 0.28125 0.8125
vt 0.28125 1
vt 0.1875 1
vn 0 0 -1
vn 1 0 0
vn 0 0 1
vn -1 0 0
vn 0 1 0
vn 0 -1 0
usemtl none
f 1/1/1 2/2/1 3/3/1 4/4/1
f 5/5/2 1/6/2 4/7/2 6/8/2
f 7/9/3 5/10/3 6/11/3 8/12/3
f 2/13/4 7/14/4 8/15/4 3/16/4
f 8/17/5 6/18/5 4/19/5 3/20/5
f 2/21/6 1/22/6 5/23/6 7/24/6
o /right_front_leg
v -0.015625 0.171875 -0.234375
v -0.171875 0.171875 -0.234375
v -0.171875 0.390625 -0.234375
v -0.015625 0.390625 -0.234375
v -0.015625 0.171875 -0.078125
v -0.015625 0.390625 -0.078125
v -0.171875 0.171875 -0.078125
v -0.171875 0.390625 -0.078125
vt 0.0625 0.1875
vt 0.125 0.1875
vt 0.125 0.375
vt 0.0625 0.375
vt 0 0.1875
vt 0.0625 0.1875
vt 0.0625 0.375
vt 0 0.375
vt 0.1875 0.1875
vt 0.25 0.1875
vt 0.25 0.375
vt 0.1875 0.375
vt 0.125 0.1875
vt 0.1875 0.1875
vt 0.1875 0.375
vt 0.125 0.375
vt 0.125 0.5
vt 0.0625 0.5
vt 0.0625 0.375
vt 0.125 0.375
vt 0.125 0.375
vt 0.1875 0.375
vt 0.1875 0.5
vt 0.125 0.5
vn 0 0 -1
vn 1 0 0
vn 0 0 1
vn -1 0 0
vn 0 1 0
vn 0 -1 0
usemtl none
f 9/25/7 10/26/7 11/27/7 12/28/7
f 13/29/8 9/30/8 12/31/8 14/32/8
f 15/33/9 13/34/9 14/35/9 16/36/9
f 10/37/10 15/38/10 16/39/10 11/40/10
f 16/41/11 14/42/11 12/43/11 11/44/11
f 10/45/12 9/46/12 13/47/12 15/48/12
o /right_hind_leg
v -0.015625 0.171875 0.140625
v -0.171875 0.171875 0.140625
v -0.171875 0.390625 0.140625
v -0.015625 0.390625 0.140625
v -0.015625 0.171875 0.296875
v -0.015625 0.390625 0.296875
v -0.171875 0.171875 0.296875
v -0.171875 0.390625 0.296875
vt 0.0625 0.1875
vt 0.125 0.1875
vt 0.125 0.375
vt 0.0625 0.375
vt 0 0.1875
vt 0.0625 0.1875
vt 0.0625 0.375
vt 0 0.375
vt 0.1875 0.1875
vt 0.25 0.1875
vt 0.25 0.375
vt 0.1875 0.375
vt 0.125 0.1875
vt 0.1875 0.1875
vt 0.1875 0.375
vt 0.125 0.375
vt 0.125 0.5
vt 0.0625 0.5
vt 0.0625 0.375
vt 0.125 0.375
vt 0.125 0.375
vt 0.1875 0.375
vt 0.1875 0.5
vt 0.125 0.5
vn 0 0 -1
vn 1 0 0
vn 0 0 1
vn -1 0 0
vn 0 1 0
vn 0 -1 0
usemtl none
f 17/49/13 18/50/13 19/51/13 20/52/13
f 21/53/14 17/54/14 20/55/14 22/56/14
f 23/57/15 21/58/15 22/59/15 24/60/15
f 18/61/16 23/62/16 24/63/16 19/64/16
f 24/65/17 22/66/17 20/67/17 19/68/17
f 18/69/18 17/70/18 21/71/18 23/72/18
o /left_hind_leg
v 0.171875 0.171875 0.140625
v 0.015625 0.171875 0.140625
v 0.015625 0.390625 0.140625
v 0.171875 0.390625 0.140625
v 0.171875 0.171875 0.296875
v 0.171875 0.390625 0.296875
v 0.015625 0.171875 0.296875
v 0.015625 0.390625 0.296875
vt 0.0625 0.1875
vt 0.125 0.1875
vt 0.125 0.375
vt 0.0625 0.375
vt 0 0.1875
vt 0.0625 0.1875
vt 0.0625 0.375
vt 0 0.375
vt 0.1875 0.1875
vt 0.25 0.1875
vt 0.25 0.375
vt 0.1875 0.375
vt 0.125 0.1875
vt 0.1875 0.1875
vt 0.1875 0.375
vt 0.125 0.375
vt 0.125 0.5
vt 0.0625 0.5
vt 0.0625 0.375
vt 0.125 0.375
vt 0.125 0.375
vt 0.1875 0.375
vt 0.1875 0.5
vt 0.125 0.5
vn 0 0 -1
vn 1 0 0
vn 0 0 1
vn -1 0 0
vn 0 1 0
vn 0 -1 0
usemtl none
f 25/73/19 26/74/19 27/75/19 28/76/19
f 29/77/20 25/78/20 28/79/20 30/80/20
f 31/81/21 29/82/21 30/83/21 32/84/21
f 26/85/22 31/86/22 32/87/22 27/88/22
f 32/89/23 30/90/23 28/91/23 27/92/23
f 26/93/24 25/94/24 29/95/24 31/96/24
o /body
v 0.1796875 0.32031249999999994 0.3046875
v -0.1796875 0.32031249999999994 0.3046875
v -0.1796875 0.32031250000000006 -0.30468750000000006
v 0.1796875 0.32031250000000006 -0.30468750000000006
v 0.1796875 0.6171875 0.3046875
v 0.1796875 0.6171875000000001 -0.3046875
v -0.1796875 0.6171875 0.3046875
v -0.1796875 0.6171875000000001 -0.3046875
vt 0.53125 0.0625
vt 0.65625 0.0625
vt 0.65625 0.5625
vt 0.53125 0.5625
vt 0.4375 0.0625
vt 0.53125 0.0625
vt 0.53125 0.5625
vt 0.4375 0.5625
vt 0.75 0.0625
vt 0.875 0.0625
vt 0.875 0.5625
vt 0.75 0.5625
vt 0.65625 0.0625
vt 0.75 0.0625
vt 0.75 0.5625
vt 0.65625 0.5625
vt 0.65625 0.75
vt 0.53125 0.75
vt 0.53125 0.5625
vt 0.65625 0.5625
vt 0.65625 0.5625
vt 0.78125 0.5625
vt 0.78125 0.75
vt 0.65625 0.75
vn 0 -1 -1.8219044506669235e-16
vn 1 0 0
vn 0 1 1.8219044506669235e-16
vn -1 0 0
vn 0 1.8698493046318422e-16 -1
vn 0 0 1
usemtl none
f 33/97/25 34/98/25 35/99/25 36/100/25
f 37/101/26 33/102/26 36/103/26 38/104/26
f 39/105/27 37/106/27 38/107/27 40/108/27
f 34/109/28 39/110/28 40/111/28 35/112/28
f 40/113/29 38/114/29 36/115/29 35/116/29
f 34/117/30 33/118/30 37/119/30 39/120/30
o /left_front_leg
v 0.171875 0.171875 -0.234375
v 0.015625 0.171875 -0.234375
v 0.015625 0.390625 -0.234375
v 0.171875 0.390625 -0.234375
v 0.171875 0.171875 -0.078125
v 0.171875 0.390625 -0.078125
v 0.015625 0.171875 -0.078125
v 0.015625 0.390625 -0.078125
vt 0.0625 0.1875
vt 0.125 0.1875
vt 0.125 0.375
vt 0.0625 0.375
vt 0 0.1875
vt 0.0625 0.1875
vt 0.0625 0.375
vt 0 0.375
vt 0.1875 0.1875
vt 0.25 0.1875
vt 0.25 0.375
vt 0.1875 0.375
vt 0.125 0.1875
vt 0.1875 0.1875
vt 0.1875 0.375
vt 0.125 0.375
vt 0.125 0.5
vt 0.0625 0.5
vt 0.0625 0.375
vt 0.125 0.375
vt 0.125 0.375
vt 0.1875 0.375
vt 0.1875 0.5
vt 0.125 0.5
vn 0 0 -1
vn 1 0 0
vn 0 0 1
vn -1 0 0
vn 0 1 0
vn 0 -1 0
usemtl none
f 41/121/31 42/122/31 43/123/31 44/124/31
f 45/125/32 41/126/32 44/127/32 46/128/32
f 47/129/33 45/130/33 46/131/33 48/132/33
f 42/133/34 47/134/34 48/135/34 43/136/34
f 48/137/35 46/138/35 44/139/35 43/140/35
f 42/141/36 41/142/36 45/143/36 47/144/36